<svg width="80" height="80" viewBox="0 0 80 80" xmlns="http://www.w3.org/2000/svg">
  <!-- Ears -->
  <circle cx="25" cy="20" rx="11" ry="16" fill="#654321"/>
  <circle cx="55" cy="20" rx="11" ry="16" fill="#654321"/>
  <circle cx="25" cy="20" rx="6" ry="10" fill="#8B5A3C"/>
  <circle cx="55" cy="20" rx="6" ry="10" fill="#8B5A3C"/>
  
  <!-- Head -->
  <circle cx="40" cy="44" r="28" fill="#8B4513"/>
  
  <!-- Face -->
  <ellipse cx="40" cy="46" rx="22" ry="20" fill="#A0522D"/>
  
  <!-- Eyes -->
  <circle cx="30" cy="40" r="5" fill="#000"/>
  <circle cx="30" cy="39" r="2" fill="#FFF"/>
  <circle cx="50" cy="40" r="5" fill="#000"/>
  <circle cx="50" cy="39" r="2" fill="#FFF"/>
  
  <!-- Nose -->
  <ellipse cx="40" cy="48" rx="4" ry="3" fill="#000"/>
  
  <!-- Mouth -->
  <path d="M 40 48 Q 35 54 30 52" stroke="#000" stroke-width="2" fill="none" stroke-linecap="round"/>
  <path d="M 40 48 Q 45 54 50 52" stroke="#000" stroke-width="2" fill="none" stroke-linecap="round"/>
  
  <!-- Body -->
  <ellipse cx="40" cy="68" rx="24" ry="14" fill="#8B4513"/>
  
  <!-- Arms -->
  <ellipse cx="16" cy="60" rx="8" ry="7" fill="#8B4513" transform="rotate(-35 16 60)"/>
  <ellipse cx="64" cy="60" rx="8" ry="7" fill="#8B4513" transform="rotate(35 64 60)"/>
  
  <!-- Legs -->
  <rect x="26" y="76" width="8" height="6" rx="2" fill="#654321"/>
  <rect x="46" y="76" width="8" height="6" rx="2" fill="#654321"/>
  
  <!-- Belly patch -->
  <ellipse cx="40" cy="68" rx="12" ry="8" fill="#A0522D" opacity="0.7"/>
</svg>