<svg width="80" height="80" viewBox="0 0 80 80" xmlns="http://www.w3.org/2000/svg">
  <!-- Ears -->
  <ellipse cx="28" cy="28" rx="10" ry="15" fill="#FF8C00"/>
  <ellipse cx="52" cy="28" rx="10" ry="15" fill="#FF8C00"/>
  <ellipse cx="28" cy="28" rx="5" ry="9" fill="#FFB87F"/>
  <ellipse cx="52" cy="28" rx="5" ry="9" fill="#FFB87F"/>
  
  <!-- Head -->
  <circle cx="40" cy="44" r="26" fill="#FF8C00"/>
  
  <!-- Face -->
  <circle cx="40" cy="46" r="18" fill="#FFB87F"/>
  
  <!-- Eyes -->
  <circle cx="32" cy="40" r="4" fill="#000"/>
  <circle cx="32" cy="39" r="1.5" fill="#FFF"/>
  <circle cx="48" cy="40" r="4" fill="#000"/>
  <circle cx="48" cy="39" r="1.5" fill="#FFF"/>
  
  <!-- Nose -->
  <circle cx="40" cy="46" r="2" fill="#FFB87F"/>
  <circle cx="40" cy="48" r="2" fill="#FFB87F"/>
  
  <!-- Mouth -->
  <path d="M 40 50 Q 35 54 32 52" stroke="#000" stroke-width="1.5" fill="none" stroke-linecap="round"/>
  <path d="M 40 50 Q 45 54 48 52" stroke="#000" stroke-width="1.5" fill="none" stroke-linecap="round"/>
  
  <!-- Whiskers -->
  <line x1="20" y1="46" x2="10" y2="45" stroke="#FF8C00" stroke-width="1"/>
  <line x1="20" y1="50" x2="10" y2="50" stroke="#FF8C00" stroke-width="1"/>
  <line x1="60" y1="46" x2="70" y2="45" stroke="#FF8C00" stroke-width="1"/>
  <line x1="60" y1="50" x2="70" y2="50" stroke="#FF8C00" stroke-width="1"/>
  
  <!-- Body -->
  <ellipse cx="40" cy="64" rx="18" ry="14" fill="#FF8C00"/>
  
  <!-- Tail -->
  <path d="M 52 62 Q 62 58 65 50" stroke="#FF8C00" stroke-width="4" fill="none" stroke-linecap="round"/>
</svg>