<svg width="80" height="80" viewBox="0 0 80 80" xmlns="http://www.w3.org/2000/svg">
  <!-- Ears -->
  <circle cx="28" cy="22" rx="9" ry="14" fill="#8B4513"/>
  <circle cx="28" cy="22" rx="5" ry="9" fill="#FFB87F"/>
  <circle cx="52" cy="22" rx="9" ry="14" fill="#8B4513"/>
  <circle cx="52" cy="22" rx="5" ry="9" fill="#FFB87F"/>
  
  <!-- Head -->
  <circle cx="40" cy="44" r="26" fill="#8B4513"/>
  
  <!-- Snout -->
  <ellipse cx="40" cy="50" rx="14" ry="10" fill="#D4A574"/>
  
  <!-- Eyes -->
  <circle cx="32" cy="38" r="4" fill="#000"/>
  <circle cx="32" cy="37" r="1.5" fill="#FFF"/>
  <circle cx="48" cy="38" r="4" fill="#000"/>
  <circle cx="48" cy="37" r="1.5" fill="#FFF"/>
  
  <!-- Nose -->
  <circle cx="40" cy="48" r="2.5" fill="#000"/>
  
  <!-- Tongue -->
  <ellipse cx="40" cy="54" rx="3" ry="4" fill="#FF69B4"/>
  
  <!-- Mouth -->
  <path d="M 40 48 L 40 54" stroke="#000" stroke-width="1"/>
  
  <!-- Body -->
  <ellipse cx="40" cy="66" rx="20" ry="12" fill="#8B4513"/>
  
  <!-- Legs -->
  <rect x="26" y="72" width="6" height="8" rx="2" fill="#8B4513"/>
  <rect x="48" y="72" width="6" height="8" rx="2" fill="#8B4513"/>
  
  <!-- Tail (wagging) -->
  <path d="M 55 64 Q 65 60 64 50" stroke="#8B4513" stroke-width="5" fill="none" stroke-linecap="round"/>
</svg>