<svg width="80" height="80" viewBox="0 0 80 80" xmlns="http://www.w3.org/2000/svg">
  <!-- Water background -->
  <circle cx="40" cy="40" r="38" fill="#E0F4FF" opacity="0.2"/>
  
  <!-- Body (jellyfish bell) -->
  <ellipse cx="40" cy="32" rx="20" ry="18" fill="#FF69B4" opacity="0.8"/>
  <path d="M 20 32 Q 20 45 30 50" fill="#FF69B4" opacity="0.6"/>
  <path d="M 60 32 Q 60 45 50 50" fill="#FF69B4" opacity="0.6"/>
  
  <!-- Tentacles -->
  <path d="M 28 48 Q 26 60 25 72" stroke="#FF69B4" stroke-width="3" fill="none" stroke-linecap="round"/>
  <path d="M 35 50 Q 34 62 33 74" stroke="#FF69B4" stroke-width="3" fill="none" stroke-linecap="round"/>
  <path d="M 40 50 Q 40 62 40 74" stroke="#FF69B4" stroke-width="3" fill="none" stroke-linecap="round"/>
  <path d="M 45 50 Q 46 62 47 74" stroke="#FF69B4" stroke-width="3" fill="none" stroke-linecap="round"/>
  <path d="M 52 48 Q 54 60 55 72" stroke="#FF69B4" stroke-width="3" fill="none" stroke-linecap="round"/>
  
  <!-- Eyes -->
  <circle cx="33" cy="28" r="3" fill="#000"/>
  <circle cx="33" cy="27.5" r="1.5" fill="#FFF"/>
  <circle cx="47" cy="28" r="3" fill="#000"/>
  <circle cx="47" cy="27.5" r="1.5" fill="#FFF"/>
  
  <!-- Mouth (smile) -->
  <path d="M 35 36 Q 40 40 45 36" stroke="#000" stroke-width="1.5" fill="none" stroke-linecap="round"/>
  
  <!-- Spots on bell -->
  <circle cx="35" cy="30" r="2" fill="#FFB6D9" opacity="0.7"/>
  <circle cx="45" cy="32" r="2" fill="#FFB6D9" opacity="0.7"/>
  <circle cx="40" cy="38" r="2" fill="#FFB6D9" opacity="0.7"/>
</svg>