<svg width="80" height="80" viewBox="0 0 80 80" xmlns="http://www.w3.org/2000/svg">
  <!-- Ears -->
  <circle cx="25" cy="18" r="10" fill="#8B4513"/>
  <circle cx="25" cy="18" r="6" fill="#D4A574"/>
  <circle cx="55" cy="18" r="10" fill="#8B4513"/>
  <circle cx="55" cy="18" r="6" fill="#D4A574"/>
  
  <!-- Head -->
  <circle cx="40" cy="42" r="28" fill="#8B4513"/>
  
  <!-- Face -->
  <circle cx="40" cy="44" r="20" fill="#D4A574"/>
  
  <!-- Eyes -->
  <circle cx="32" cy="38" r="5" fill="#FFF"/>
  <circle cx="32" cy="38" r="3" fill="#000"/>
  <circle cx="48" cy="38" r="5" fill="#FFF"/>
  <circle cx="48" cy="38" r="3" fill="#000"/>
  
  <!-- Nose -->
  <ellipse cx="40" cy="46" rx="4" ry="3" fill="#000"/>
  
  <!-- Mouth -->
  <path d="M 40 46 Q 35 52 32 50" stroke="#000" stroke-width="1.5" fill="none" stroke-linecap="round"/>
  <path d="M 40 46 Q 45 52 48 50" stroke="#000" stroke-width="1.5" fill="none" stroke-linecap="round"/>
  
  <!-- Body -->
  <ellipse cx="40" cy="65" rx="18" ry="14" fill="#8B4513"/>
  
  <!-- Arms -->
  <ellipse cx="18" cy="56" rx="8" ry="6" fill="#8B4513" transform="rotate(-30 18 56)"/>
  <ellipse cx="62" cy="56" rx="8" ry="6" fill="#8B4513" transform="rotate(30 62 56)"/>
  
  <!-- Feet -->
  <ellipse cx="30" cy="74" rx="7" ry="5" fill="#8B4513"/>
  <ellipse cx="50" cy="74" rx="7" ry="5" fill="#8B4513"/>
</svg>