<svg width="80" height="80" viewBox="0 0 80 80" xmlns="http://www.w3.org/2000/svg">
  <!-- Ears -->
  <ellipse cx="30" cy="15" rx="8" ry="18" fill="#D4A574"/>
  <ellipse cx="30" cy="16" rx="5" ry="14" fill="#FFB6C1"/>
  <ellipse cx="50" cy="15" rx="8" ry="18" fill="#D4A574"/>
  <ellipse cx="50" cy="16" rx="5" ry="14" fill="#FFB6C1"/>
  
  <!-- Head -->
  <circle cx="40" cy="42" r="28" fill="#D4A574"/>
  
  <!-- Snout -->
  <ellipse cx="40" cy="48" rx="15" ry="12" fill="#F5DEB3"/>
  
  <!-- Eyes -->
  <circle cx="32" cy="38" r="4" fill="#000"/>
  <circle cx="32" cy="37" r="1.5" fill="#FFF"/>
  <circle cx="48" cy="38" r="4" fill="#000"/>
  <circle cx="48" cy="37" r="1.5" fill="#FFF"/>
  
  <!-- Nose -->
  <circle cx="40" cy="46" r="3" fill="#FFB6C1"/>
  
  <!-- Mouth -->
  <path d="M 40 46 Q 38 50 35 49" stroke="#000" stroke-width="1" fill="none" stroke-linecap="round"/>
  <path d="M 40 46 Q 42 50 45 49" stroke="#000" stroke-width="1" fill="none" stroke-linecap="round"/>
  
  <!-- Body -->
  <ellipse cx="40" cy="62" rx="20" ry="16" fill="#D4A574"/>
  
  <!-- Feet -->
  <ellipse cx="28" cy="72" rx="6" ry="5" fill="#D4A574"/>
  <ellipse cx="52" cy="72" rx="6" ry="5" fill="#D4A574"/>
</svg>