<svg width="80" height="80" viewBox="0 0 80 80" xmlns="http://www.w3.org/2000/svg">
  <!-- Shell (dome) -->
  <ellipse cx="40" cy="38" rx="24" ry="22" fill="#8B7355"/>
  <path d="M 40 16 Q 50 24 50 38" fill="#A0826D" opacity="0.5"/>
  
  <!-- Shell pattern (hexagons) -->
  <circle cx="35" cy="28" r="4" fill="#A0826D"/>
  <circle cx="45" cy="28" r="4" fill="#A0826D"/>
  <circle cx="40" cy="36" r="4" fill="#A0826D"/>
  
  <!-- Head -->
  <circle cx="40" cy="56" r="12" fill="#A0826D"/>
  
  <!-- Eyes -->
  <circle cx="35" cy="52" r="3" fill="#000"/>
  <circle cx="35" cy="51" r="1" fill="#FFF"/>
  <circle cx="45" cy="52" r="3" fill="#000"/>
  <circle cx="45" cy="51" r="1" fill="#FFF"/>
  
  <!-- Nose -->
  <circle cx="40" cy="55" r="1.5" fill="#000"/>
  
  <!-- Mouth -->
  <path d="M 40 55 Q 38 60 36 59" stroke="#000" stroke-width="1" fill="none" stroke-linecap="round"/>
  <path d="M 40 55 Q 42 60 44 59" stroke="#000" stroke-width="1" fill="none" stroke-linecap="round"/>
  
  <!-- Front left leg -->
  <ellipse cx="22" cy="62" rx="6" ry="8" fill="#A0826D"/>
  <ellipse cx="20" cy="72" rx="5" ry="4" fill="#8B7355"/>
  
  <!-- Front right leg -->
  <ellipse cx="58" cy="62" rx="6" ry="8" fill="#A0826D"/>
  <ellipse cx="60" cy="72" rx="5" ry="4" fill="#8B7355"/>
  
  <!-- Back legs (partially hidden) -->
  <ellipse cx="30" cy="68" rx="5" ry="6" fill="#8B7355" opacity="0.7"/>
  <ellipse cx="50" cy="68" rx="5" ry="6" fill="#8B7355" opacity="0.7"/>
</svg>